<svg version="1.1" xmlns="http://www.w3.org/2000/svg" viewBox="0 0 920.8669433702817 564.8325712739681" width="920.8669433702817" height="564.8325712739681">
  <!-- svg-source:excalidraw -->
  
  <defs>
    <style>
      @font-face {
        font-family: "Virgil";
        src: url("https://excalidraw.com/Virgil.woff2");
      }
      @font-face {
        font-family: "Cascadia";
        src: url("https://excalidraw.com/Cascadia.woff2");
      }
    </style>
  </defs>
  <rect x="0" y="0" width="920.8669433702817" height="564.8325712739681" fill="#ffffff"></rect><g stroke-linecap="round"><g transform="translate(195.61309309750868 10.708661217289091) rotate(0 -0.4018730450079602 269.07139218828706)"><path d="M0.62 0.22 C0.58 90.03, -0.3 449.16, -0.31 538.85 M-0.51 -0.71 C-0.73 88.78, -1.52 447.71, -1.43 537.19" stroke="#343a40" stroke-width="1" fill="none"></path></g></g><g stroke-linecap="round"><g transform="translate(430.9349443371648 12.778069273830397) rotate(0 0.7050617510321899 271.0870481081963)"><path d="M-0.31 0.89 C-0.33 91.16, 0.62 451.85, 0.53 541.87 M1.72 0.31 C1.54 90.19, -0.12 449.66, -0.14 539.95" stroke="#343a40" stroke-width="1" fill="none"></path></g></g><g stroke-linecap="round"><g transform="translate(16.6761792537327 63.70866121728909) rotate(0 440.0622399207168 0.1873350172256778)"><path d="M0.53 0.39 C147 0.17, 732.02 -0.37, 878.52 -0.46 M-0.66 -0.44 C146.22 -0.58, 734.2 0.58, 880.78 0.84" stroke="#343a40" stroke-width="1" fill="none"></path></g></g><g transform="translate(76.6761792537327 23.70866121728909) rotate(0 33.5 17.5)"><text x="0" y="28" font-family="Cascadia, Segoe UI Emoji" font-size="28px" fill="#343a40" text-anchor="start" style="white-space: pre;" direction="ltr">User</text></g><g transform="translate(237.6761792537327 16.70866121728909) rotate(0 74.5 17.5)"><text x="0" y="28" font-family="Cascadia, Segoe UI Emoji" font-size="28px" fill="#343a40" text-anchor="start" style="white-space: pre;" direction="ltr">Registrar</text></g><g transform="translate(470.6761792537327 19.70866121728909) rotate(0 82.5 17.5)"><text x="0" y="28" font-family="Cascadia, Segoe UI Emoji" font-size="28px" fill="#343a40" text-anchor="start" style="white-space: pre;" direction="ltr">Authoriser</text></g><g transform="translate(758.6761792537327 18.70866121728909) rotate(0 25 17.5)"><text x="0" y="28" font-family="Cascadia, Segoe UI Emoji" font-size="28px" fill="#343a40" text-anchor="start" style="white-space: pre;" direction="ltr">ENS</text></g><g stroke-linecap="round"><g transform="translate(688.720997163251 9.714630415537385) rotate(0 0.04788171900327143 269.85339825294034)"><path d="M0.76 1.05 C0.5 90.79, -0.84 449.56, -1.04 539.16 M-0.3 0.55 C-0.25 89.87, 1.32 447.41, 1.13 537.32" stroke="#343a40" stroke-width="1" fill="none"></path></g></g><g stroke-linecap="round"><g transform="translate(909.6823996667845 18.903125919668128) rotate(0 -0.1965821552039415 266.0867647248698)"><path d="M-0.08 0.51 C-0.02 89.06, 1.32 442.67, 1.18 531.37 M-1.58 -0.26 C-1.64 88.4, 0.34 443.96, 0.86 532.44" stroke="#343a40" stroke-width="1" fill="none"></path></g></g><g stroke-linecap="round"><g transform="translate(20.6761792537327 10.72110630001498) rotate(0 0.019589844541769708 269.3169563486341)"><path d="M-0.5 0.58 C-0.74 90.2, -0.43 449.28, -0.3 538.8 M1.44 -0.17 C0.92 89.65, -1.11 447.29, -1.4 537.13" stroke="#343a40" stroke-width="1" fill="none"></path></g></g><g stroke-linecap="round"><g transform="translate(10.981111043347482 15.708661217289091) rotate(0 439.7476604903204 -0.00462855950240737)"><path d="M0.31 -0.93 C146.89 -1.23, 734.15 -1.3, 880.48 -1.02 M-0.98 1.19 C145.44 0.95, 733.18 0.37, 880.1 -0.03" stroke="#343a40" stroke-width="1" fill="none"></path></g></g><g stroke-linecap="round" transform="translate(89.6761792537327 123.70866121728909) rotate(0 10.5 10.5)"><path d="M13.44 0.26 C15.48 0.71, 18.52 3.18, 19.66 5.22 C20.79 7.27, 20.55 10.26, 20.26 12.52 C19.96 14.79, 19.43 17.33, 17.86 18.84 C16.29 20.35, 13.17 21.57, 10.83 21.58 C8.49 21.6, 5.68 20.37, 3.83 18.94 C1.97 17.5, 0.1 15.17, -0.29 12.98 C-0.69 10.78, 0.28 7.82, 1.44 5.76 C2.61 3.7, 4.45 1.26, 6.7 0.61 C8.95 -0.05, 13.42 1.58, 14.95 1.84 C16.49 2.09, 15.83 2.07, 15.91 2.14 M15.33 0.66 C17.13 1.45, 19.35 4.69, 20.29 6.74 C21.23 8.79, 21.67 10.74, 20.97 12.95 C20.27 15.17, 17.87 18.63, 16.1 20.04 C14.34 21.45, 12.65 21.67, 10.37 21.42 C8.09 21.16, 4.27 20.21, 2.42 18.5 C0.58 16.8, -0.45 13.4, -0.69 11.18 C-0.93 8.97, -0.22 6.94, 0.99 5.23 C2.21 3.52, 4.13 1.87, 6.6 0.93 C9.07 -0.01, 14.6 -0.23, 15.8 -0.4 C17.01 -0.58, 14.02 -0.37, 13.84 -0.1" stroke="none" stroke-width="0" fill="#343a40"></path><path d="M10.39 -0.7 C12.7 -1.22, 15.49 0.14, 17.28 1.38 C19.07 2.63, 20.57 4.57, 21.13 6.75 C21.69 8.93, 21.56 12.28, 20.66 14.45 C19.77 16.61, 17.75 18.76, 15.76 19.75 C13.77 20.74, 10.92 20.97, 8.72 20.38 C6.52 19.8, 3.89 17.94, 2.57 16.24 C1.25 14.54, 0.65 12.26, 0.81 10.17 C0.97 8.09, 1.7 5.39, 3.54 3.72 C5.38 2.06, 10.36 0.72, 11.86 0.2 C13.36 -0.32, 12.83 0.32, 12.52 0.59 M12.92 0.12 C15.17 0.29, 18.15 1.86, 19.7 3.69 C21.25 5.52, 22.33 8.73, 22.22 11.1 C22.11 13.46, 20.67 16.38, 19.05 17.88 C17.44 19.38, 14.7 20.12, 12.54 20.09 C10.37 20.06, 8.05 18.65, 6.05 17.73 C4.05 16.8, 1.56 16.22, 0.54 14.54 C-0.47 12.86, -0.82 10.01, -0.04 7.65 C0.74 5.29, 3.17 1.7, 5.24 0.38 C7.31 -0.94, 10.84 -0.46, 12.39 -0.29 C13.94 -0.12, 14.24 1.15, 14.55 1.38" stroke="#343a40" stroke-width="1" fill="none"></path></g><g transform="translate(263.6761792537327 118.70866121728909) rotate(0 59 12.5)"><text x="0" y="20" font-family="Cascadia, Segoe UI Emoji" font-size="20px" fill="#343a40" text-anchor="start" style="white-space: pre;" direction="ltr">register()</text></g><g transform="translate(502.6761792537327 116.20866121728909) rotate(0 76.5 12.5)"><text x="0" y="20" font-family="Cascadia, Segoe UI Emoji" font-size="20px" fill="#343a40" text-anchor="start" style="white-space: pre;" direction="ltr">canRegister()</text></g><g stroke-linecap="round"><g transform="translate(121.25763832727898 133.7555746965577) rotate(0 64.66055777221845 -0.1255332766080528)"><path d="M0.03 1.05 C21.86 1.08, 109.09 0.77, 130.74 0.57 M-1.42 0.55 C20.39 0.18, 108.61 -1.37, 130.4 -1.3" stroke="#343a40" stroke-width="1" fill="none"></path></g><g transform="translate(121.25763832727898 133.7555746965577) rotate(0 64.66055777221845 -0.1255332766080528)"><path d="M104.05 11.14 C110.86 6.82, 117.4 3.75, 131.31 -0.86 M102.82 9.51 C109.83 6.45, 117.71 2.95, 129.8 -0.79" stroke="#343a40" stroke-width="1" fill="none"></path></g><g transform="translate(121.25763832727898 133.7555746965577) rotate(0 64.66055777221845 -0.1255332766080528)"><path d="M103.87 -9.38 C110.79 -8.01, 117.38 -5.4, 131.31 -0.86 M102.64 -11.01 C109.64 -8.28, 117.58 -5.99, 129.8 -0.79" stroke="#343a40" stroke-width="1" fill="none"></path></g></g><g stroke-linecap="round"><g transform="translate(392.9192847728955 134.82244803982098) rotate(0 47.407340597361326 -1.260847364889969)"><path d="M0.46 -0.58 C16.33 -1.2, 79.59 -3.6, 95.57 -4.25 M-0.76 1.73 C14.9 1.29, 78.41 -2.2, 94.53 -3.09" stroke="#343a40" stroke-width="1" fill="none"></path></g><g transform="translate(392.9192847728955 134.82244803982098) rotate(0 47.407340597361326 -1.260847364889969)"><path d="M65.97 8.39 C74.9 5.7, 83.65 1.56, 95.68 -4.94 M66.44 7.95 C74.18 6.79, 80.38 3.23, 95.48 -3.91" stroke="#343a40" stroke-width="1" fill="none"></path></g><g transform="translate(392.9192847728955 134.82244803982098) rotate(0 47.407340597361326 -1.260847364889969)"><path d="M64.85 -12.1 C74.06 -8.02, 83.18 -5.39, 95.68 -4.94 M65.32 -12.54 C73.15 -8.92, 79.61 -7.71, 95.48 -3.91" stroke="#343a40" stroke-width="1" fill="none"></path></g></g><g transform="translate(250.1761792537327 215.20866121728955) rotate(0 59 12.5)"><text x="0" y="20" font-family="Cascadia, Segoe UI Emoji" font-size="20px" fill="#343a40" text-anchor="start" style="white-space: pre;" direction="ltr">register()</text></g><g stroke-linecap="round"><g transform="translate(559.2700578206932 147.70048827111418) rotate(0 -90.25814581734267 41.131203723076624)"><path d="M-0.33 1 C-3.81 11.92, 8.11 52.51, -22.09 65.84 C-52.28 79.17, -154.9 78.44, -181.5 80.99 M1.7 0.48 C-1.76 11.47, 8.07 53.22, -22.58 66.77 C-53.23 80.32, -155.74 79.28, -182.21 81.78" stroke="#343a40" stroke-width="1" fill="none"></path></g><g transform="translate(559.2700578206932 147.70048827111418) rotate(0 -90.25814581734267 41.131203723076624)"><path d="M-152.84 71.73 C-162 72.68, -167.3 74.72, -183.61 81.61 M-154.34 69.44 C-162.96 73.72, -171.02 76.01, -181.25 81.63" stroke="#343a40" stroke-width="1" fill="none"></path></g><g transform="translate(559.2700578206932 147.70048827111418) rotate(0 -90.25814581734267 41.131203723076624)"><path d="M-151.93 92.23 C-161.33 89.05, -166.82 86.96, -183.61 81.61 M-153.43 89.94 C-162.4 88.44, -170.71 84.95, -181.25 81.63" stroke="#343a40" stroke-width="1" fill="none"></path></g></g><g transform="translate(517.6761792537327 182.7086612172891) rotate(0 47.5 10)"><text x="0" y="16" font-family="Cascadia, Segoe UI Emoji" font-size="16px" fill="#343a40" text-anchor="start" style="white-space: pre;" direction="ltr">true/false</text></g><g stroke-linecap="round" transform="translate(91.1761792537327 292.20866121728955) rotate(0 10.5 10.5)"><path d="M5.8 1.42 C7.83 0.18, 11.61 -0.73, 13.75 -0.37 C15.9 0, 17.35 1.49, 18.69 3.61 C20.02 5.72, 22.04 9.98, 21.77 12.32 C21.5 14.66, 18.94 16.15, 17.06 17.65 C15.19 19.15, 12.71 20.98, 10.51 21.31 C8.32 21.64, 5.65 20.91, 3.9 19.6 C2.15 18.29, 0.37 15.83, 0.02 13.46 C-0.32 11.09, 0.58 7.46, 1.83 5.38 C3.09 3.31, 6.49 2, 7.55 1.01 C8.6 0.01, 8.21 -0.67, 8.17 -0.6 M12.8 -0.7 C15.21 -0.44, 17.83 1.36, 18.97 3.13 C20.11 4.9, 19.86 7.54, 19.65 9.9 C19.45 12.27, 18.92 15.73, 17.72 17.34 C16.52 18.94, 14.21 18.85, 12.47 19.53 C10.72 20.2, 9.11 22.39, 7.25 21.4 C5.39 20.4, 2.64 15.61, 1.3 13.57 C-0.04 11.52, -1.56 11.14, -0.8 9.15 C-0.04 7.16, 3.98 3.11, 5.83 1.6 C7.68 0.09, 9.21 0.45, 10.29 0.07 C11.36 -0.31, 11.86 -0.79, 12.27 -0.71" stroke="none" stroke-width="0" fill="#c92a2a"></path><path d="M14.59 1 C16.88 1.23, 19.01 2.27, 20.11 4.14 C21.21 6.01, 21.66 10.02, 21.2 12.22 C20.73 14.42, 18.9 15.77, 17.32 17.34 C15.74 18.91, 14.06 21.52, 11.72 21.63 C9.38 21.74, 5.28 19.58, 3.27 17.99 C1.27 16.39, 0.14 14.2, -0.29 12.06 C-0.72 9.92, -0.3 7.12, 0.69 5.16 C1.67 3.2, 3.19 1.1, 5.62 0.29 C8.05 -0.53, 13.64 0.14, 15.26 0.26 C16.88 0.38, 15.38 0.81, 15.34 1.02 M15.44 -0.41 C17.67 0.38, 20.4 2.72, 21.31 5.03 C22.21 7.35, 21.9 11.27, 20.87 13.48 C19.85 15.69, 17.01 17.23, 15.17 18.28 C13.32 19.33, 11.64 19.73, 9.79 19.76 C7.94 19.78, 5.61 20, 4.07 18.43 C2.53 16.86, 0.79 12.53, 0.57 10.34 C0.36 8.14, 1.63 7.1, 2.78 5.24 C3.93 3.38, 5.23 -0.09, 7.49 -0.82 C9.75 -1.55, 14.91 0.27, 16.34 0.86 C17.78 1.45, 16.54 2.6, 16.1 2.72" stroke="#c92a2a" stroke-width="1" fill="none"></path></g><g stroke-linecap="round"><g transform="translate(282.6761792537327 252.70866121728932) rotate(0 -79.87780183321956 27.677633594551708)"><path d="M1.19 1.11 C-1.83 8.37, 9.64 33.97, -17.39 42.9 C-44.41 51.83, -137.23 52.85, -160.95 54.71 M0.36 0.65 C-2.83 7.63, 8.47 32.6, -18.01 41.25 C-44.49 49.9, -134.98 50.26, -158.51 52.54" stroke="#c92a2a" stroke-width="1" fill="none"></path></g><g transform="translate(282.6761792537327 252.70866121728932) rotate(0 -79.87780183321956 27.677633594551708)"><path d="M-129.03 41.89 C-139.43 43.9, -150.33 50.25, -159.04 50.73 M-131.71 40.33 C-141.92 44.54, -152.12 48.57, -159.02 53.36" stroke="#c92a2a" stroke-width="1" fill="none"></path></g><g transform="translate(282.6761792537327 252.70866121728932) rotate(0 -79.87780183321956 27.677633594551708)"><path d="M-127.98 62.38 C-138.65 57, -149.94 55.94, -159.04 50.73 M-130.67 60.82 C-141.41 57.3, -152 53.6, -159.02 53.36" stroke="#c92a2a" stroke-width="1" fill="none"></path></g></g><g transform="translate(747.6761792537327 272.7086612172893) rotate(0 59 12.5)"><text x="0" y="20" font-family="Cascadia, Segoe UI Emoji" font-size="20px" fill="#343a40" text-anchor="start" style="white-space: pre;" direction="ltr">register()</text></g><g stroke-linecap="round"><g transform="translate(331.6761792537327 248.70866121728932) rotate(0 202.52632401885967 21.45519203299932)"><path d="M0.76 -0.76 C8.93 5.66, -19.25 31.53, 48.18 38.57 C115.61 45.6, 345.78 40.73, 405.35 41.45 M-0.3 1.46 C7.89 8.04, -19.58 33.05, 47.85 39.88 C115.27 46.7, 344.62 42.25, 404.24 42.4" stroke="#2b8a3e" stroke-width="1" fill="none"></path></g><g transform="translate(331.6761792537327 248.70866121728932) rotate(0 202.52632401885967 21.45519203299932)"><path d="M374.86 54.83 C381.88 49.19, 387.91 47.15, 405.49 44.28 M376.06 52.5 C382.23 51.56, 388.97 47.81, 405.17 42.8" stroke="#2b8a3e" stroke-width="1" fill="none"></path></g><g transform="translate(331.6761792537327 248.70866121728932) rotate(0 202.52632401885967 21.45519203299932)"><path d="M374.71 34.31 C381.77 33.4, 387.83 36.09, 405.49 44.28 M375.91 31.98 C382.11 35.52, 388.88 36.24, 405.17 42.8" stroke="#2b8a3e" stroke-width="1" fill="none"></path></g></g><g stroke-linecap="round" transform="translate(95.1761792537327 426.2086612172891) rotate(0 10.5 10.5)"><path d="M9.5 0.53 C11.82 0.43, 16.16 0.63, 18.1 1.86 C20.03 3.09, 20.95 5.59, 21.09 7.91 C21.23 10.23, 19.96 13.54, 18.94 15.77 C17.91 18, 17.03 20.37, 14.93 21.29 C12.84 22.22, 8.74 22.32, 6.34 21.33 C3.95 20.34, 1.47 17.55, 0.57 15.35 C-0.32 13.14, 0.57 10.12, 0.98 8.1 C1.39 6.08, 1.3 4.49, 3.04 3.24 C4.77 1.99, 9.38 0.94, 11.39 0.58 C13.4 0.21, 14.92 1.08, 15.11 1.05 M11.8 -1.17 C14.26 -1.09, 17.11 2.2, 18.53 3.78 C19.95 5.37, 20.1 6.03, 20.31 8.33 C20.53 10.64, 21.2 15.44, 19.82 17.59 C18.44 19.75, 14.38 20.66, 12.05 21.25 C9.72 21.85, 7.93 21.99, 5.84 21.16 C3.75 20.32, 0.27 18.53, -0.51 16.25 C-1.29 13.97, 0.29 9.9, 1.15 7.49 C2.02 5.07, 2.96 2.94, 4.67 1.76 C6.37 0.58, 10.4 0.69, 11.38 0.4 C12.35 0.11, 10.64 0.06, 10.5 0.03" stroke="none" stroke-width="0" fill="#2b8a3e"></path><path d="M11.58 -0.01 C13.88 0.2, 17.31 1.78, 18.85 3.57 C20.39 5.36, 20.9 8.38, 20.81 10.71 C20.72 13.05, 19.69 16.03, 18.34 17.56 C16.98 19.09, 14.68 19.6, 12.69 19.89 C10.7 20.17, 8.3 20.17, 6.4 19.27 C4.5 18.37, 2.31 16.37, 1.3 14.49 C0.28 12.61, -0.44 10.19, 0.32 7.99 C1.08 5.79, 3.84 2.56, 5.87 1.27 C7.91 -0.01, 11.06 0.35, 12.54 0.29 C14.01 0.23, 14.47 0.71, 14.72 0.92 M11.87 1.2 C13.91 1.27, 16.04 2.49, 17.36 4.06 C18.69 5.63, 19.63 8.72, 19.83 10.62 C20.03 12.52, 19.87 13.74, 18.56 15.46 C17.24 17.18, 13.87 20.22, 11.93 20.93 C9.99 21.65, 8.78 20.58, 6.93 19.75 C5.08 18.92, 1.72 17.77, 0.81 15.96 C-0.1 14.15, 1.06 11.04, 1.48 8.9 C1.89 6.77, 1.55 4.63, 3.28 3.14 C5 1.65, 10.33 0.25, 11.82 -0.03 C13.31 -0.32, 12.09 1.02, 12.22 1.41" stroke="#2b8a3e" stroke-width="1" fill="none"></path></g><g stroke-linecap="round"><g transform="translate(804.7737902187982 309.7086612172893) rotate(0 -339.8707964127607 62.50483883294271)"><path d="M0.08 -0.22 C-16.13 15.76, 15.81 75.62, -97.44 96.5 C-210.69 117.38, -582.13 120.13, -679.42 125.05 M-1.33 -1.38 C-17.64 14.7, 15.04 76.48, -98.04 97.77 C-211.13 119.07, -582.59 122.02, -679.83 126.39" stroke="#343a40" stroke-width="1" fill="none"></path></g><g transform="translate(804.7737902187982 309.7086612172893) rotate(0 -339.8707964127607 62.50483883294271)"><path d="M-652.3 116.45 C-660.75 119.69, -667.88 119.96, -678.1 125.41 M-651.16 116.27 C-662.11 118.34, -671.81 123.17, -680 127.32" stroke="#343a40" stroke-width="1" fill="none"></path></g><g transform="translate(804.7737902187982 309.7086612172893) rotate(0 -339.8707964127607 62.50483883294271)"><path d="M-651.73 136.96 C-660.46 134.29, -667.75 128.64, -678.1 125.41 M-650.6 136.78 C-661.76 131.59, -671.66 129.14, -680 127.32" stroke="#343a40" stroke-width="1" fill="none"></path></g></g><g stroke-linecap="round"><g transform="translate(25.981111043347482 553.7086612172895) rotate(0 440.0334581637344 -0.1585619906801412)"><path d="M0.22 -0.26 C146.5 -0.23, 732.17 -0.19, 878.8 -0.27 M-1.13 -1.44 C145.45 -1.19, 734.43 0.86, 881.2 1.12" stroke="#343a40" stroke-width="1" fill="none"></path></g></g></svg>